<svg id="Capa_1" data-name="Capa 1" xmlns="http://www.w3.org/2000/svg" xmlns:xlink="http://www.w3.org/1999/xlink" viewBox="0 0 942.32 116.86"><defs><style>.cls-1{fill:url(#Degradado_sin_nombre_104);}.cls-2{fill:url(#Degradado_sin_nombre_161);}.cls-3{fill:url(#Degradado_sin_nombre_104-2);}.cls-4{fill:url(#Degradado_sin_nombre_154);}.cls-5{fill:#0cac83;}.cls-6{fill:#2678bf;}</style><linearGradient id="Degradado_sin_nombre_104" x1="8068.3" y1="-113.82" x2="8025.15" y2="-234.08" gradientTransform="translate(8137.79 -96.56) rotate(180)" gradientUnits="userSpaceOnUse"><stop offset="0" stop-color="#0f4c74"/><stop offset="1" stop-color="#59df9f"/></linearGradient><linearGradient id="Degradado_sin_nombre_161" x1="8067.04" y1="-99.62" x2="8119.41" y2="-190.33" gradientTransform="translate(8150.63 -82.99) rotate(180)" gradientUnits="userSpaceOnUse"><stop offset="0" stop-color="#59df9f"/><stop offset="0.16" stop-color="#56d8a1"/><stop offset="0.39" stop-color="#4dc6a7"/><stop offset="0.67" stop-color="#3da7b0"/><stop offset="0.97" stop-color="#297dbd"/><stop offset="1" stop-color="#2678bf"/></linearGradient><linearGradient id="Degradado_sin_nombre_104-2" x1="7977" y1="-113.82" x2="7933.85" y2="-234.08" xlink:href="#Degradado_sin_nombre_104"/><linearGradient id="Degradado_sin_nombre_154" x1="8015.01" y1="-214.66" x2="7993.59" y2="-119.01" gradientTransform="translate(8150.63 -82.99) rotate(180)" gradientUnits="userSpaceOnUse"><stop offset="0" stop-color="#2678bf"/><stop offset="0.2" stop-color="#287cbe"/><stop offset="0.39" stop-color="#2e87ba"/><stop offset="0.58" stop-color="#379bb4"/><stop offset="0.77" stop-color="#45b6ac"/><stop offset="0.95" stop-color="#56d8a1"/><stop offset="0.98" stop-color="#59df9f"/></linearGradient></defs><polygon class="cls-1" points="121.25 116.86 77.58 0 77.58 0 47.27 0 90.94 116.86 121.25 116.86"/><path class="cls-2" d="M43.15,130.43,74.67,52.51h0l4.2-10.39c4-7.94,10.78-16.28,19.12-8.3L90.42,13.57H60.11L12.84,130.43Z" transform="translate(-12.84 -13.57)"/><polygon class="cls-3" points="212.56 116.86 168.89 0 168.89 0 138.58 0 182.25 116.86 212.56 116.86"/><path class="cls-4" d="M134.45,130.43,166,52.51h0l4.21-10.39c4-7.94,10.77-16.28,19.11-8.3l-7.56-20.25H151.42L104.15,130.43Z" transform="translate(-12.84 -13.57)"/><path class="cls-5" d="M277.06,126.33V107.11h1.43v19.22Z" transform="translate(-12.84 -13.57)"/><path class="cls-5" d="M279,126.83h-2.41V106.62H279Zm-1.42-1H278V107.61h-.43Z" transform="translate(-12.84 -13.57)"/><path class="cls-5" d="M316.21,107.11v19.22h-1.35l-14.94-17v16.92h-1.43V107.11h1.34l14.95,17v-17Z" transform="translate(-12.84 -13.57)"/><path class="cls-5" d="M316.7,126.83h-2.06l-14.23-16.16v16.1H298V106.62h2.06l14.23,16.16V106.62h2.41Zm-1.61-1h.62V107.61h-.43v17.78l-15.67-17.78H299v18.17h.43V108.05Z" transform="translate(-12.84 -13.57)"/><path class="cls-5" d="M353.92,107.11v19.22h-1.34l-14.95-17v16.92H336.2V107.11h1.35l14.94,17v-17Z" transform="translate(-12.84 -13.57)"/><path class="cls-5" d="M354.41,126.83h-2.06l-14.23-16.16v16.1h-2.41V106.62h2.06L352,122.78V106.62h2.41Zm-1.61-1h.62V107.61H353v17.78l-15.67-17.78h-.62v18.17h.43V108.05Z" transform="translate(-12.84 -13.57)"/><path class="cls-5" d="M394,116.7c0,7.11-3.81,9.58-10.46,9.58s-10.43-2.47-10.43-9.58,3.77-9.59,10.43-9.59S394,109.58,394,116.7Zm-1.45,0c0-6.3-3.15-8.16-9-8.16s-9,1.86-9,8.16,3.15,8.15,9,8.15S392.54,123,392.54,116.7Z" transform="translate(-12.84 -13.57)"/><path class="cls-5" d="M383.53,126.77c-7.45,0-10.93-3.2-10.93-10.07s3.48-10.08,10.93-10.08,11,3.2,11,10.08S391,126.77,383.53,126.77Zm0-19.16c-7,0-9.94,2.71-9.94,9.09s3,9.08,9.94,9.08,10-2.71,10-9.08S390.51,107.61,383.53,107.61Zm0,17.74c-6.66,0-9.5-2.59-9.5-8.65s2.84-8.66,9.5-8.66,9.5,2.59,9.5,8.66S390.19,125.35,383.53,125.35Zm0-16.32c-6.13,0-8.52,2.15-8.52,7.67s2.39,7.66,8.52,7.66,8.51-2.15,8.51-7.66S389.65,109,383.53,109Z" transform="translate(-12.84 -13.57)"/><path class="cls-5" d="M431.73,107.11l-10.87,19.17h-1.15l-10.87-19.17h1.64l9.8,17.28,9.81-17.28Z" transform="translate(-12.84 -13.57)"/><path class="cls-5" d="M421.15,126.77h-1.73L408,106.62h2.77l9.51,16.77,9.52-16.77h2.77Zm-1.15-1h.57l10.31-18.17h-.51l-10.09,17.78L410.2,107.61h-.51Z" transform="translate(-12.84 -13.57)"/><path class="cls-5" d="M463.17,121.51H449l-2.71,4.77h-1.64l10.87-19.17h1.15l10.87,19.17h-1.62Zm-.82-1.42L456.06,109l-6.3,11.11Z" transform="translate(-12.84 -13.57)"/><path class="cls-5" d="M468.35,126.77H465.6L462.89,122H449.25l-2.71,4.76h-2.78l11.43-20.15h1.73Zm-2.18-1h.48l-10.31-18.17h-.57l-10.31,18.17H446l2.71-4.76h14.78Zm-3-5.2H448.91L456.06,108Zm-12.6-1h10.9L456.06,110Z" transform="translate(-12.84 -13.57)"/><path class="cls-5" d="M503.24,107.11v19.22H501.9l-14.95-17v16.92h-1.42V107.11h1.34l14.95,17v-17Z" transform="translate(-12.84 -13.57)"/><path class="cls-5" d="M503.73,126.83h-2.05l-14.24-16.16v16.1H485V106.62h2.06l14.23,16.16V106.62h2.41Zm-1.61-1h.63V107.61h-.44v17.78l-15.66-17.78H486v18.17h.44V108.05Z" transform="translate(-12.84 -13.57)"/><path class="cls-5" d="M542.79,116.7c0,7.25-4.82,9.58-11.39,9.6-2.85,0-5.34,0-8.16,0V107.11h8.16C538,107.11,542.79,109.47,542.79,116.7Zm-1.43,0c0-6.44-4.21-8.16-10-8.16h-6.74v16.37c2.36,0,4.39,0,6.71,0C537.15,124.85,541.36,123.13,541.36,116.7Z" transform="translate(-12.84 -13.57)"/><path class="cls-5" d="M523.24,126.83h-.49V106.62h8.65c7.88,0,11.88,3.39,11.88,10.08s-4,10.06-11.88,10.1C528.56,126.83,526.06,126.83,523.24,126.83Zm.49-19.22v18.23c2.62,0,5,0,7.66,0,7.34,0,10.9-3,10.9-9.11s-3.56-9.09-10.89-9.09Zm.93,17.79h-.49V108h7.23c4.49,0,10.46.9,10.46,8.66s-6,8.65-10.48,8.67C529.05,125.4,527,125.4,524.66,125.4Zm.5-16.37v15.39c2.14,0,4.05,0,6.21,0,6.57,0,9.5-2.41,9.5-7.69S538,109,531.4,109Z" transform="translate(-12.84 -13.57)"/><path class="cls-5" d="M582,116.7c0,7.11-3.8,9.58-10.46,9.58s-10.43-2.47-10.43-9.58,3.78-9.59,10.43-9.59S582,109.58,582,116.7Zm-1.45,0c0-6.3-3.15-8.16-9-8.16s-9,1.86-9,8.16,3.14,8.15,9,8.15S580.53,123,580.53,116.7Z" transform="translate(-12.84 -13.57)"/><path class="cls-5" d="M571.52,126.77c-7.45,0-10.92-3.2-10.92-10.07s3.47-10.08,10.92-10.08,11,3.2,11,10.08S579,126.77,571.52,126.77Zm0-19.16c-7,0-9.93,2.71-9.93,9.09s3,9.08,9.93,9.08,10-2.71,10-9.08S578.51,107.61,571.52,107.61Zm0,17.74c-6.66,0-9.5-2.59-9.5-8.65s2.84-8.66,9.5-8.66,9.5,2.59,9.5,8.66S578.18,125.35,571.52,125.35Zm0-16.32c-6.12,0-8.51,2.15-8.51,7.67s2.39,7.66,8.51,7.66,8.52-2.15,8.52-7.66S577.65,109,571.52,109Z" transform="translate(-12.84 -13.57)"/><path class="cls-5" d="M642.9,120.91c-.25,4.36-4.13,5.37-7.86,5.37h-1.78c-4.32,0-7.85-1.07-7.85-6h1.42c0,4.08,3,4.62,6.43,4.62H635c2.91,0,6.25-.54,6.44-4,.19-3.29-3.43-3.45-7-3.59-4.32-.16-8.68-.33-8.4-5.06.27-4.52,4.1-5.07,7.85-5.07h.52c4.14,0,7.89.85,7.86,5.75l-1.42,0c0-4-3.15-4.3-6.44-4.3h-.52c-2.9,0-6.21.13-6.43,3.72-.19,3.29,3.42,3.42,7.06,3.56C638.85,116,643.18,116.17,642.9,120.91Z" transform="translate(-12.84 -13.57)"/><path class="cls-5" d="M635,126.77h-1.78c-3.58,0-8.35-.68-8.35-6.54v-.5h2.41v.5c0,3.45,2.18,4.13,5.94,4.13H635c4,0,5.81-1.1,5.94-3.56a2.2,2.2,0,0,0-.51-1.72c-1-1.15-3.7-1.26-6.05-1.35-3-.11-6.2-.23-7.82-2a4.73,4.73,0,0,1-1.06-3.57c.3-4.87,4.39-5.53,8.35-5.53h.52c2.29,0,5.13.22,6.85,1.94a5.84,5.84,0,0,1,1.5,4.31v.5l-2.41-.05v-.49a3.56,3.56,0,0,0-.86-2.61c-1.1-1.1-3.2-1.19-5.09-1.19h-.52c-3.14,0-5.75.25-5.94,3.26a2.24,2.24,0,0,0,.51,1.71c1,1.14,3.6,1.23,6.08,1.33,3,.11,6.17.23,7.79,2a4.73,4.73,0,0,1,1.06,3.59C643.24,123.6,641.67,126.77,635,126.77Zm-9.13-6c.19,3.54,2.42,5.06,7.35,5.06H635c4.71,0,7.18-1.65,7.37-4.9h0a3.75,3.75,0,0,0-.81-2.87c-1.35-1.48-4.27-1.59-7.1-1.7s-5.46-.2-6.77-1.65a3.2,3.2,0,0,1-.76-2.43c.25-4.19,4.43-4.19,6.92-4.19h.52c2.09,0,4.42.12,5.79,1.49a4.2,4.2,0,0,1,1.13,2.82h.44a4.52,4.52,0,0,0-1.21-3.1c-1.14-1.15-3-1.65-6.15-1.65h-.52c-4.25,0-7.13.78-7.36,4.6a3.75,3.75,0,0,0,.8,2.85c1.34,1.47,4.28,1.58,7.13,1.69,2.66.1,5.42.21,6.74,1.67a3.18,3.18,0,0,1,.77,2.44c-.25,4.49-5.27,4.49-6.93,4.49h-1.78c-3.46,0-6.67-.58-6.91-4.63Z" transform="translate(-12.84 -13.57)"/><path class="cls-5" d="M681.33,116.7c0,7.11-3.81,9.58-10.46,9.58s-10.43-2.47-10.43-9.58,3.78-9.59,10.43-9.59S681.33,109.58,681.33,116.7Zm-1.45,0c0-6.3-3.15-8.16-9-8.16s-9,1.86-9,8.16,3.15,8.15,9,8.15S679.88,123,679.88,116.7Z" transform="translate(-12.84 -13.57)"/><path class="cls-5" d="M670.87,126.77c-7.45,0-10.92-3.2-10.92-10.07s3.47-10.08,10.92-10.08,11,3.2,11,10.08S678.34,126.77,670.87,126.77Zm0-19.16c-7,0-9.94,2.71-9.94,9.09s3,9.08,9.94,9.08,10-2.71,10-9.08S677.85,107.61,670.87,107.61Zm0,17.74c-6.66,0-9.5-2.59-9.5-8.65s2.84-8.66,9.5-8.66,9.5,2.59,9.5,8.66S677.53,125.35,670.87,125.35Zm0-16.32c-6.13,0-8.51,2.15-8.51,7.67s2.38,7.66,8.51,7.66,8.51-2.15,8.51-7.66S677,109,670.87,109Z" transform="translate(-12.84 -13.57)"/><path class="cls-5" d="M715.65,124.91v1.42H700.48V107.11h1.42v17.8Z" transform="translate(-12.84 -13.57)"/><path class="cls-5" d="M716.14,126.83H700V106.62h2.41v17.8h13.74Zm-15.17-1h14.18v-.44H701.41V107.61H701Z" transform="translate(-12.84 -13.57)"/><path class="cls-5" d="M749.23,107.11v9.59c0,6.57-2.88,9.58-9.39,9.58s-9.39-3-9.39-9.58v-9.59h1.42v9.59c0,5.77,2.25,8.15,8,8.15s8-2.38,8-8.15v-9.59Z" transform="translate(-12.84 -13.57)"/><path class="cls-5" d="M739.84,126.77c-6.75,0-9.89-3.2-9.89-10.07V106.62h2.41V116.7c0,5.51,2.1,7.66,7.48,7.66s7.47-2.15,7.47-7.66V106.62h2.41V116.7C749.72,123.57,746.58,126.77,739.84,126.77Zm-8.9-19.16v9.09c0,6.37,2.66,9.08,8.9,9.08s8.9-2.71,8.9-9.08v-9.09h-.44v9.09c0,6.06-2.53,8.65-8.46,8.65s-8.46-2.59-8.46-8.65v-9.09Z" transform="translate(-12.84 -13.57)"/><path class="cls-5" d="M786.37,120.5h1.45c-.63,4.85-5.72,5.78-9.83,5.78-6.62,0-10.76-2.41-10.76-9.58s4.14-9.59,10.76-9.59c4.11,0,9.2.93,9.83,5.78h-1.45c-.63-3.83-5.15-4.35-8.38-4.35-5.83,0-9.33,1.8-9.33,8.16s3.5,8.15,9.33,8.15C781.22,124.85,785.74,124.33,786.37,120.5Z" transform="translate(-12.84 -13.57)"/><path class="cls-5" d="M778,126.77c-7.68,0-11.25-3.2-11.25-10.07s3.57-10.08,11.25-10.08c7.86,0,10,3.38,10.32,6.21l.07.55H786l-.07-.41c-.43-2.65-3-3.94-7.89-3.94-6.28,0-8.84,2.22-8.84,7.67s2.56,7.66,8.84,7.66c4.87,0,7.46-1.29,7.89-3.94L786,120h2.43l-.07.55C787.94,123.39,785.85,126.77,778,126.77Zm0-19.16c-7.1,0-10.27,2.8-10.27,9.09s3.17,9.08,10.27,9.08c5.43,0,8.53-1.61,9.24-4.79h-.46c-.71,2.89-3.66,4.36-8.78,4.36-4.58,0-9.83-1-9.83-8.65S773.41,108,778,108c5.12,0,8.07,1.47,8.78,4.36h.46C786.52,109.22,783.42,107.61,778,107.61Z" transform="translate(-12.84 -13.57)"/><path class="cls-5" d="M806.72,126.33V107.11h1.43v19.22Z" transform="translate(-12.84 -13.57)"/><path class="cls-5" d="M808.64,126.83h-2.41V106.62h2.41Zm-1.42-1h.43V107.61h-.43Z" transform="translate(-12.84 -13.57)"/><path class="cls-5" d="M848.22,116.7c0,7.11-3.8,9.58-10.46,9.58s-10.43-2.47-10.43-9.58,3.78-9.59,10.43-9.59S848.22,109.58,848.22,116.7Zm-1.45,0c0-6.3-3.15-8.16-9-8.16s-9,1.86-9,8.16,3.14,8.15,9,8.15S846.77,123,846.77,116.7Z" transform="translate(-12.84 -13.57)"/><path class="cls-5" d="M837.76,126.77c-7.45,0-10.92-3.2-10.92-10.07s3.47-10.08,10.92-10.08,11,3.2,11,10.08S845.23,126.77,837.76,126.77Zm0-19.16c-7,0-9.93,2.71-9.93,9.09s3,9.08,9.93,9.08,10-2.71,10-9.08S844.75,107.61,837.76,107.61Zm0,17.74c-6.66,0-9.5-2.59-9.5-8.65s2.84-8.66,9.5-8.66,9.5,2.59,9.5,8.66S844.42,125.35,837.76,125.35Zm0-16.32c-6.12,0-8.51,2.15-8.51,7.67s2.39,7.66,8.51,7.66,8.52-2.15,8.52-7.66S843.89,109,837.76,109Z" transform="translate(-12.84 -13.57)"/><path class="cls-5" d="M885.08,107.11v19.22h-1.34l-15-17v16.92h-1.42V107.11h1.34l14.95,17v-17Z" transform="translate(-12.84 -13.57)"/><path class="cls-5" d="M885.58,126.83h-2.06l-14.23-16.16v16.1h-2.41V106.62h2.06l14.23,16.16V106.62h2.41Zm-1.61-1h.62V107.61h-.44v17.78l-15.66-17.78h-.62v18.17h.43V108.05Z" transform="translate(-12.84 -13.57)"/><path class="cls-5" d="M906.51,108.54v7.55H919v1.43H906.51v7.36h14.32v1.45H905.09V107.11h15.74v1.43Z" transform="translate(-12.84 -13.57)"/><path class="cls-5" d="M921.32,126.83H904.59V106.62h16.73V109H907v6.57h12.51V118H907v6.38h14.32Zm-15.74-1h14.75v-.47H906V117h12.51v-.43H906V108h14.31v-.43H905.58Z" transform="translate(-12.84 -13.57)"/><path class="cls-5" d="M954.66,120.91c-.25,4.36-4.14,5.37-7.86,5.37H945c-4.33,0-7.86-1.07-7.86-6h1.43c0,4.08,2.95,4.62,6.43,4.62h1.78c2.9,0,6.24-.54,6.43-4,.19-3.29-3.42-3.45-7-3.59-4.33-.16-8.68-.33-8.41-5.06.27-4.52,4.11-5.07,7.86-5.07h.52c4.13,0,7.88.85,7.86,5.75l-1.43,0c0-4-3.15-4.3-6.43-4.3h-.52c-2.9,0-6.22.13-6.44,3.72-.19,3.29,3.43,3.42,7.07,3.56C950.6,116,954.93,116.17,954.66,120.91Z" transform="translate(-12.84 -13.57)"/><path class="cls-5" d="M946.8,126.77H945c-3.59,0-8.35-.68-8.35-6.54v-.5h2.41v.5c0,3.45,2.18,4.13,5.94,4.13h1.78c4,0,5.8-1.1,5.94-3.56a2.24,2.24,0,0,0-.51-1.72c-1.05-1.15-3.71-1.26-6.05-1.35-3-.11-6.21-.23-7.82-2a4.69,4.69,0,0,1-1.06-3.57c.29-4.87,4.39-5.53,8.35-5.53h.52c2.29,0,5.13.22,6.84,1.94a5.84,5.84,0,0,1,1.51,4.31v.5l-2.41-.05v-.49a3.48,3.48,0,0,0-.86-2.61c-1.09-1.1-3.2-1.19-5.08-1.19h-.52c-3.14,0-5.76.25-5.94,3.26a2.2,2.2,0,0,0,.5,1.71c1,1.14,3.6,1.23,6.08,1.33,3,.11,6.17.23,7.8,2a4.77,4.77,0,0,1,1.06,3.59C955,123.6,953.43,126.77,946.8,126.77Zm-9.13-6c.18,3.54,2.41,5.06,7.35,5.06h1.78c4.7,0,7.18-1.65,7.36-4.9h0a3.74,3.74,0,0,0-.8-2.87c-1.35-1.48-4.27-1.59-7.1-1.7s-5.46-.2-6.78-1.65a3.24,3.24,0,0,1-.76-2.43c.26-4.19,4.43-4.19,6.93-4.19h.52c2.08,0,4.42.12,5.78,1.49a4.2,4.2,0,0,1,1.13,2.82h.44a4.52,4.52,0,0,0-1.21-3.1c-1.13-1.15-3-1.65-6.14-1.65h-.52c-4.25,0-7.13.78-7.37,4.6a3.71,3.71,0,0,0,.81,2.85c1.33,1.47,4.28,1.58,7.12,1.69,2.67.1,5.42.21,6.75,1.67a3.17,3.17,0,0,1,.76,2.44c-.24,4.49-5.27,4.49-6.92,4.49H945c-3.46,0-6.68-.58-6.91-4.63Z" transform="translate(-12.84 -13.57)"/><path class="cls-6" d="M342.94,23.72a3,3,0,0,0-3-3,2.78,2.78,0,0,0-2.15.85L309.38,50,281.06,21.66a3.34,3.34,0,0,0-2.24-.94,3,3,0,0,0-3,3,4.27,4.27,0,0,0,.05.56l.06.75-.06,28.74a4.78,4.78,0,0,0-.05.5V76.1a3,3,0,0,0,6,0V31l25.4,25.4a2.78,2.78,0,0,0,2.15.86,2.73,2.73,0,0,0,2.06-.86L337,31l0,22.88c0,.21,0,.32,0,.43V76.1a3,3,0,0,0,6,0V54.27c0-.11,0-.22,0-.33l0-.55,0-29.15C342.93,24,342.94,23.86,342.94,23.72Z" transform="translate(-12.84 -13.57)"/><path class="cls-6" d="M412.94,22.12a2.52,2.52,0,0,0-2.63-1.4,3,3,0,0,0-3,3,4.66,4.66,0,0,0,.72,2l29.6,51.43c1.06,1.78,2,1.93,2.89,1.93a3,3,0,0,0,3-3,2.68,2.68,0,0,0-.3-1.44Z" transform="translate(-12.84 -13.57)"/><path class="cls-6" d="M407.69,60h-14.9L400,47.48a4.57,4.57,0,0,0,.72-2,3,3,0,0,0-3-3,2.52,2.52,0,0,0-2.63,1.41L377.43,74.6a3.38,3.38,0,0,0-.33,1.5,3,3,0,0,0,3,3c1.13,0,1.88-.29,2.79-1.9L389.37,66h18.32a3,3,0,0,0,0-6Z" transform="translate(-12.84 -13.57)"/><path class="cls-6" d="M510.76,58.36l5.87-3.89A18.64,18.64,0,0,0,525.15,39a17.14,17.14,0,0,0-5.36-12.85,17.26,17.26,0,0,0-12.92-5.43H480.68a3,3,0,0,0-3,3V76.1a3,3,0,0,0,6,0V26.61l18.33.06a4.42,4.42,0,0,0,.49,0h4.37a12.28,12.28,0,0,1,.41,24.55H502.5a3,3,0,0,0-3,3,2.78,2.78,0,0,0,.86,2.15l21.82,21.83a2.78,2.78,0,0,0,2.15.85,3,3,0,0,0,3-3,2.78,2.78,0,0,0-.85-2.15Z" transform="translate(-12.84 -13.57)"/><path class="cls-6" d="M580.92,52.33l-17.26-30A2.88,2.88,0,0,0,561,20.72a3,3,0,0,0-3,3,3.39,3.39,0,0,0,.35,1.54L576,56a2.64,2.64,0,0,0,2.63,1.4,3,3,0,0,0,2.43-4.78Z" transform="translate(-12.84 -13.57)"/><path class="cls-6" d="M621.42,20.72c-1.17,0-2,.3-2.88,1.9L588.93,74.07a4.56,4.56,0,0,0-.72,2,3,3,0,0,0,3,3,2.5,2.5,0,0,0,2.63-1.41l30.29-52.56a2.83,2.83,0,0,0,.29-1.41A3,3,0,0,0,621.42,20.72Z" transform="translate(-12.84 -13.57)"/><path class="cls-6" d="M661.58,20.72a3,3,0,0,0-3,3V76.1a3,3,0,1,0,6,0V23.72A3,3,0,0,0,661.58,20.72Z" transform="translate(-12.84 -13.57)"/><path class="cls-6" d="M746.22,28.78l-.19-.17a28.21,28.21,0,0,0-7.79-5.17,4.22,4.22,0,0,0-1.65-.37A2.72,2.72,0,0,0,734,24.76a3,3,0,0,0,1.58,4,24.47,24.47,0,0,1,6.94,4.75,2.75,2.75,0,0,0,2.14.85,3,3,0,0,0,3-3A3.28,3.28,0,0,0,746.22,28.78Z" transform="translate(-12.84 -13.57)"/><path class="cls-6" d="M744.69,65.41a2.74,2.74,0,0,0-2.31,1.09l-.25.27a21,21,0,0,1-6.61,4.38A2.91,2.91,0,0,0,734,72.76a3.05,3.05,0,0,0,4.14,3.8A25.76,25.76,0,0,0,746.32,71l.26-.25a2.74,2.74,0,0,0,1.12-2.33A3,3,0,0,0,744.69,65.41Z" transform="translate(-12.84 -13.57)"/><path class="cls-6" d="M718.26,24.76a2.23,2.23,0,0,0-1.63-1.46l-.16,0a3.64,3.64,0,0,0-1.13-.2,2.82,2.82,0,0,0-1.36.37l-.22.12a29,29,0,0,0-12.27,10.7A28.47,28.47,0,0,0,697,49.91,28.61,28.61,0,0,0,701.74,66,29.13,29.13,0,0,0,714.23,76.6a3.08,3.08,0,0,0,4-1.55,2.9,2.9,0,0,0-1.5-3.94,23.14,23.14,0,0,1,0-42.31A3,3,0,0,0,718.26,24.76Z" transform="translate(-12.84 -13.57)"/><path class="cls-6" d="M833.75,20.72a3,3,0,0,0-3,3V46.91h-42V23.72a3,3,0,0,0-6,0V76.1a3,3,0,1,0,6,0V52.91h42V76.1a3,3,0,0,0,6,0V23.72A3,3,0,0,0,833.75,20.72Z" transform="translate(-12.84 -13.57)"/><path class="cls-6" d="M948.05,38.79a2.21,2.21,0,0,0-2.21,2.2V78a2.21,2.21,0,1,0,4.41,0V41A2.21,2.21,0,0,0,948.05,38.79Z" transform="translate(-12.84 -13.57)"/><path class="cls-6" d="M904.93,40.39h0a2.94,2.94,0,0,0-2.41-1.56,1.71,1.71,0,0,0-.9.24,1.75,1.75,0,0,0-.6.61l-.29.39a4.93,4.93,0,0,0-.51.67L879.57,76.4a2.56,2.56,0,0,0,.51,3.53,1.9,1.9,0,0,0,1.59.12,3.14,3.14,0,0,0,1.72-1.44l4.55-7.85h29.48l4.34,7.51a3.17,3.17,0,0,0,1.72,1.44,2,2,0,0,0,1.6-.12,1.93,1.93,0,0,0,.89-1.33,3.05,3.05,0,0,0-.39-2.2Zm-14.46,26,12.2-21.08,12.21,21.08Z" transform="translate(-12.84 -13.57)"/></svg>